{
  "accessors": [
    {
      "bufferView": 0,
      "componentType": 5125,
      "count": 9456,
      "type": "SCALAR"
    },
    {
      "bufferView": 1,
      "componentType": 5126,
      "count": 5964,
      "max": [
        2.45509696006775,
        10.7575273513794,
        6.43799114227295
      ],
      "min": [
        -2.37360191345215,
        -13.2355403900146,
        3.03472304344177
      ],
      "type": "VEC3"
    },
    {
      "bufferView": 2,
      "componentType": 5126,
      "count": 5964,
      "type": "VEC3"
    },
    {
      "bufferView": 3,
      "componentType": 5126,
      "count": 5964,
      "type": "VEC4"
    },
    {
      "bufferView": 4,
      "componentType": 5126,
      "count": 5964,
      "type": "VEC2"
    },
    {
      "bufferView": 5,
      "componentType": 5125,
      "count": 318,
      "type": "SCALAR"
    },
    {
      "bufferView": 6,
      "componentType": 5126,
      "count": 212,
      "max": [
        2.42786574363708,
        10.5425615310669,
        6.40367078781128
      ],
      "min": [
        -2.33635425567627,
        -13.2123975753784,
        3.11087656021118
      ],
      "type": "VEC3"
    },
    {
      "bufferView": 7,
      "componentType": 5126,
      "count": 212,
      "type": "VEC3"
    },
    {
      "bufferView": 8,
      "componentType": 5126,
      "count": 212,
      "type": "VEC4"
    },
    {
      "bufferView": 9,
      "componentType": 5126,
      "count": 212,
      "type": "VEC2"
    },
    {
      "bufferView": 10,
      "componentType": 5125,
      "count": 10488,
      "type": "SCALAR"
    },
    {
      "bufferView": 11,
      "componentType": 5126,
      "count": 4959,
      "max": [
        1.61735022068024,
        1.50369143486023,
        7.0647144317627
      ],
      "min": [
        -1.52070331573486,
        -13.2300729751587,
        3.07425546646118
      ],
      "type": "VEC3"
    },
    {
      "bufferView": 12,
      "componentType": 5126,
      "count": 4959,
      "type": "VEC3"
    },
    {
      "bufferView": 13,
      "componentType": 5126,
      "count": 4959,
      "type": "VEC4"
    },
    {
      "bufferView": 14,
      "componentType": 5126,
      "count": 4959,
      "type": "VEC2"
    },
    {
      "bufferView": 15,
      "componentType": 5125,
      "count": 10716,
      "type": "SCALAR"
    },
    {
      "bufferView": 16,
      "componentType": 5126,
      "count": 4967,
      "max": [
        2.4874210357666,
        2.35415863990784,
        7.0647144317627
      ],
      "min": [
        -2.37829351425171,
        -13.2297735214233,
        3.07425379753113
      ],
      "type": "VEC3"
    },
    {
      "bufferView": 17,
      "componentType": 5126,
      "count": 4967,
      "type": "VEC3"
    },
    {
      "bufferView": 18,
      "componentType": 5126,
      "count": 4967,
      "type": "VEC4"
    },
    {
      "bufferView": 19,
      "componentType": 5126,
      "count": 4967,
      "type": "VEC2"
    },
    {
      "bufferView": 20,
      "componentType": 5125,
      "count": 480,
      "type": "SCALAR"
    },
    {
      "bufferView": 21,
      "componentType": 5126,
      "count": 130,
      "max": [
        2.15042400360107,
        2.3857569694519,
        6.36785221099854
      ],
      "min": [
        -0.0788566917181015,
        -2.41366958618164,
        2.57195520401001
      ],
      "type": "VEC3"
    },
    {
      "bufferView": 22,
      "componentType": 5126,
      "count": 130,
      "type": "VEC3"
    },
    {
      "bufferView": 23,
      "componentType": 5126,
      "count": 130,
      "type": "VEC4"
    },
    {
      "bufferView": 24,
      "componentType": 5126,
      "count": 130,
      "type": "VEC2"
    },
    {
      "bufferView": 25,
      "componentType": 5125,
      "count": 552,
      "type": "SCALAR"
    },
    {
      "bufferView": 26,
      "componentType": 5126,
      "count": 316,
      "max": [
        0.435839831829071,
        0.589323043823242,
        7.00143623352051
      ],
      "min": [
        -0.518814742565155,
        -0.664381980895996,
        0.00143575668334961
      ],
      "type": "VEC3"
    },
    {
      "bufferView": 27,
      "componentType": 5126,
      "count": 316,
      "type": "VEC3"
    },
    {
      "bufferView": 28,
      "componentType": 5126,
      "count": 316,
      "type": "VEC4"
    },
    {
      "bufferView": 29,
      "componentType": 5126,
      "count": 316,
      "type": "VEC2"
    },
    {
      "bufferView": 30,
      "componentType": 5125,
      "count": 768,
      "type": "SCALAR"
    },
    {
      "bufferView": 31,
      "componentType": 5126,
      "count": 472,
      "max": [
        0.443013161420822,
        0.493790864944458,
        6.96667957305908
      ],
      "min": [
        -0.519038081169128,
        -0.637373805046082,
        1.53187918663025
      ],
      "type": "VEC3"
    },
    {
      "bufferView": 32,
      "componentType": 5126,
      "count": 472,
      "type": "VEC3"
    },
    {
      "bufferView": 33,
      "componentType": 5126,
      "count": 472,
      "type": "VEC4"
    },
    {
      "bufferView": 34,
      "componentType": 5126,
      "count": 472,
      "type": "VEC2"
    }
  ],
  "asset": {
    "generator": "Adobe Substance 3D Painter 10.1.2",
    "version": "2.0"
  },
  "bufferViews": [
    {
      "buffer": 0,
      "byteLength": 37824,
      "target": 34963
    },
    {
      "buffer": 0,
      "byteLength": 71568,
      "byteOffset": 37824,
      "target": 34962
    },
    {
      "buffer": 0,
      "byteLength": 71568,
      "byteOffset": 109392,
      "target": 34962
    },
    {
      "buffer": 0,
      "byteLength": 95424,
      "byteOffset": 180960,
      "target": 34962
    },
    {
      "buffer": 0,
      "byteLength": 47712,
      "byteOffset": 276384,
      "target": 34962
    },
    {
      "buffer": 0,
      "byteLength": 1272,
      "byteOffset": 324096,
      "target": 34963
    },
    {
      "buffer": 0,
      "byteLength": 2544,
      "byteOffset": 325368,
      "target": 34962
    },
    {
      "buffer": 0,
      "byteLength": 2544,
      "byteOffset": 327912,
      "target": 34962
    },
    {
      "buffer": 0,
      "byteLength": 3392,
      "byteOffset": 330456,
      "target": 34962
    },
    {
      "buffer": 0,
      "byteLength": 1696,
      "byteOffset": 333848,
      "target": 34962
    },
    {
      "buffer": 0,
      "byteLength": 41952,
      "byteOffset": 335544,
      "target": 34963
    },
    {
      "buffer": 0,
      "byteLength": 59508,
      "byteOffset": 377496,
      "target": 34962
    },
    {
      "buffer": 0,
      "byteLength": 59508,
      "byteOffset": 437004,
      "target": 34962
    },
    {
      "buffer": 0,
      "byteLength": 79344,
      "byteOffset": 496512,
      "target": 34962
    },
    {
      "buffer": 0,
      "byteLength": 39672,
      "byteOffset": 575856,
      "target": 34962
    },
    {
      "buffer": 0,
      "byteLength": 42864,
      "byteOffset": 615528,
      "target": 34963
    },
    {
      "buffer": 0,
      "byteLength": 59604,
      "byteOffset": 658392,
      "target": 34962
    },
    {
      "buffer": 0,
      "byteLength": 59604,
      "byteOffset": 717996,
      "target": 34962
    },
    {
      "buffer": 0,
      "byteLength": 79472,
      "byteOffset": 777600,
      "target": 34962
    },
    {
      "buffer": 0,
      "byteLength": 39736,
      "byteOffset": 857072,
      "target": 34962
    },
    {
      "buffer": 0,
      "byteLength": 1920,
      "byteOffset": 896808,
      "target": 34963
    },
    {
      "buffer": 0,
      "byteLength": 1560,
      "byteOffset": 898728,
      "target": 34962
    },
    {
      "buffer": 0,
      "byteLength": 1560,
      "byteOffset": 900288,
      "target": 34962
    },
    {
      "buffer": 0,
      "byteLength": 2080,
      "byteOffset": 901848,
      "target": 34962
    },
    {
      "buffer": 0,
      "byteLength": 1040,
      "byteOffset": 903928,
      "target": 34962
    },
    {
      "buffer": 0,
      "byteLength": 2208,
      "byteOffset": 904968,
      "target": 34963
    },
    {
      "buffer": 0,
      "byteLength": 3792,
      "byteOffset": 907176,
      "target": 34962
    },
    {
      "buffer": 0,
      "byteLength": 3792,
      "byteOffset": 910968,
      "target": 34962
    },
    {
      "buffer": 0,
      "byteLength": 5056,
      "byteOffset": 914760,
      "target": 34962
    },
    {
      "buffer": 0,
      "byteLength": 2528,
      "byteOffset": 919816,
      "target": 34962
    },
    {
      "buffer": 0,
      "byteLength": 3072,
      "byteOffset": 922344,
      "target": 34963
    },
    {
      "buffer": 0,
      "byteLength": 5664,
      "byteOffset": 925416,
      "target": 34962
    },
    {
      "buffer": 0,
      "byteLength": 5664,
      "byteOffset": 931080,
      "target": 34962
    },
    {
      "buffer": 0,
      "byteLength": 7552,
      "byteOffset": 936744,
      "target": 34962
    },
    {
      "buffer": 0,
      "byteLength": 3776,
      "byteOffset": 944296,
      "target": 34962
    }
  ],
  "buffers": [
    {
      "byteLength": 948072,
      "uri": "textura CINTA.bin"
    }
  ],
  "images": [
    {
      "uri": "Cinta_baseColor.png"
    },
    {
      "uri": "Cinta_occlusionRoughnessMetallic.png"
    },
    {
      "uri": "Cinta_normal.png"
    }
  ],
  "materials": [
    {
      "alphaMode": "BLEND",
      "name": "Cinta",
      "normalTexture": {
        "index": 2
      },
      "occlusionTexture": {
        "index": 1
      },
      "pbrMetallicRoughness": {
        "baseColorTexture": {
          "index": 0
        },
        "metallicRoughnessTexture": {
          "index": 1
        }
      }
    }
  ],
  "meshes": [
    {
      "name": "CINTA.001",
      "primitives": [
        {
          "attributes": {
            "NORMAL": 2,
            "POSITION": 1,
            "TANGENT": 3,
            "TEXCOORD_0": 4
          },
          "indices": 0,
          "material": 0,
          "mode": 4
        }
      ]
    },
    {
      "name": "Plane.001",
      "primitives": [
        {
          "attributes": {
            "NORMAL": 7,
            "POSITION": 6,
            "TANGENT": 8,
            "TEXCOORD_0": 9
          },
          "indices": 5,
          "material": 0,
          "mode": 4
        }
      ]
    },
    {
      "name": "baranda 1",
      "primitives": [
        {
          "attributes": {
            "NORMAL": 12,
            "POSITION": 11,
            "TANGENT": 13,
            "TEXCOORD_0": 14
          },
          "indices": 10,
          "material": 0,
          "mode": 4
        }
      ]
    },
    {
      "name": "baranda 2",
      "primitives": [
        {
          "attributes": {
            "NORMAL": 17,
            "POSITION": 16,
            "TANGENT": 18,
            "TEXCOORD_0": 19
          },
          "indices": 15,
          "material": 0,
          "mode": 4
        }
      ]
    },
    {
      "name": "soportes",
      "primitives": [
        {
          "attributes": {
            "NORMAL": 22,
            "POSITION": 21,
            "TANGENT": 23,
            "TEXCOORD_0": 24
          },
          "indices": 20,
          "material": 0,
          "mode": 4
        }
      ]
    },
    {
      "name": "soportes 2",
      "primitives": [
        {
          "attributes": {
            "NORMAL": 27,
            "POSITION": 26,
            "TANGENT": 28,
            "TEXCOORD_0": 29
          },
          "indices": 25,
          "material": 0,
          "mode": 4
        }
      ]
    },
    {
      "name": "soportes 3",
      "primitives": [
        {
          "attributes": {
            "NORMAL": 32,
            "POSITION": 31,
            "TANGENT": 33,
            "TEXCOORD_0": 34
          },
          "indices": 30,
          "material": 0,
          "mode": 4
        }
      ]
    }
  ],
  "nodes": [
    {
      "children": [
        1,
        3,
        5,
        7,
        9,
        11,
        13
      ],
      "name": "RootNode",
      "scale": [
        0.00999999977648258,
        0.00999999977648258,
        0.00999999977648258
      ]
    },
    {
      "children": [
        2
      ],
      "name": "CINTA.001",
      "rotation": [
        -0.707106828689575,
        0.0,
        0.0,
        0.707106709480286
      ],
      "scale": [
        100.0,
        100.0,
        100.0
      ]
    },
    {
      "mesh": 0,
      "name": "CINTA.001"
    },
    {
      "children": [
        4
      ],
      "name": "Plane.001",
      "rotation": [
        -0.707106828689575,
        0.0,
        0.0,
        0.707106709480286
      ],
      "scale": [
        100.0,
        100.0,
        100.0
      ]
    },
    {
      "mesh": 1,
      "name": "Plane.001"
    },
    {
      "children": [
        6
      ],
      "name": "baranda 1",
      "rotation": [
        -0.707106828689575,
        0.0,
        0.0,
        0.707106709480286
      ],
      "scale": [
        100.0,
        100.0,
        100.0
      ]
    },
    {
      "mesh": 2,
      "name": "baranda 1"
    },
    {
      "children": [
        8
      ],
      "name": "baranda 2",
      "rotation": [
        -0.707106828689575,
        0.0,
        0.0,
        0.707106709480286
      ],
      "scale": [
        100.0,
        100.0,
        100.0
      ]
    },
    {
      "mesh": 3,
      "name": "baranda 2"
    },
    {
      "children": [
        10
      ],
      "name": "soportes",
      "rotation": [
        -0.707106828689575,
        0.0,
        0.0,
        0.707106709480286
      ],
      "scale": [
        100.0,
        100.0,
        100.0
      ]
    },
    {
      "mesh": 4,
      "name": "soportes"
    },
    {
      "children": [
        12
      ],
      "name": "soportes 2",
      "rotation": [
        -0.707106828689575,
        0.0,
        0.0,
        0.707106709480286
      ],
      "scale": [
        100.0,
        100.0,
        100.0
      ]
    },
    {
      "mesh": 5,
      "name": "soportes 2"
    },
    {
      "children": [
        14
      ],
      "name": "soportes 3",
      "rotation": [
        -0.707106828689575,
        0.0,
        0.0,
        0.707106709480286
      ],
      "scale": [
        100.0,
        100.0,
        100.0
      ]
    },
    {
      "mesh": 6,
      "name": "soportes 3"
    }
  ],
  "samplers": [
    {
      "magFilter": 9729,
      "minFilter": 9985,
      "wrapS": 10497,
      "wrapT": 10497
    }
  ],
  "scene": 0,
  "scenes": [
    {
      "name": "Scene",
      "nodes": [
        0
      ]
    }
  ],
  "textures": [
    {
      "sampler": 0,
      "source": 0
    },
    {
      "sampler": 0,
      "source": 1
    },
    {
      "sampler": 0,
      "source": 2
    }
  ]
}